# MagicaVoxel @ Ephtracy

# group
o Road_Corner

# material
mtllib TanksAndWar_Source-16-Road_Corner.mtl
usemtl palette

# normals
vn -1 0 0
vn 1 0 0
vn 0 0 1
vn 0 0 -1
vn 0 -1 0
vn 0 1 0

# texcoords
vt 0.658203 0.5
vt 0.662109 0.5
vt 0.666016 0.5
vt 0.669922 0.5
vt 0.693359 0.5
vt 0.697266 0.5
vt 0.701172 0.5

# verts
v 8.3 0 -3.3
v 8.3 0 -3.4
v 8.3 0 -3.5
v 8.3 0 -3.6
v 8.3 0 -5
v 8.3 0 -5.1
v 8.3 0 -5.2
v 8.3 0 -5.3
v 8.3 0.1 -3.3
v 8.3 0.1 -3.4
v 8.3 0.1 -3.5
v 8.3 0.1 -3.6
v 8.3 0.1 -5
v 8.3 0.1 -5.1
v 8.3 0.1 -5.2
v 8.3 0.1 -5.3
v 9.8 0.1 -5.2
v 9.8 0.1 -5.3
v 9.8 0.2 -5.2
v 9.8 0.2 -5.3
v 9.9 0.2 -5.2
v 9.9 0.2 -5.3
v 9.9 0.3 -5.2
v 9.9 0.3 -5.3
v 10 0.1 -5.1
v 10 0.1 -5.2
v 10 0.2 -5.1
v 10 0.2 -5.2
v 10.1 0.1 -5
v 10.1 0.1 -5.1
v 10.1 0.2 -5
v 10.1 0.2 -5.1
v 10.1 0.2 -5.2
v 10.1 0.3 -5.1
v 10.1 0.3 -5.2
v 10.2 0.1 -4.8
v 10.2 0.1 -4.9
v 10.2 0.1 -5
v 10.2 0.2 -4.8
v 10.2 0.2 -4.9
v 10.2 0.2 -5
v 10.2 0.2 -5.1
v 10.2 0.3 -4.9
v 10.2 0.3 -5
v 10.2 0.3 -5.1
v 10.3 0 -3.3
v 10.3 0 -4.8
v 10.3 0 -4.9
v 10.3 0 -5.1
v 10.3 0 -5.2
v 10.3 0 -5.3
v 10.3 0.1 -3.3
v 10.3 0.1 -4.8
v 10.3 0.2 -4.8
v 10.3 0.2 -4.9
v 10.3 0.2 -5
v 10.3 0.2 -5.1
v 10.3 0.2 -5.2
v 10.3 0.3 -4.9
v 10.3 0.3 -5
v 10.3 0.3 -5.1
v 10.3 0.3 -5.2
v 10.3 0.3 -5.3
v 8.3 0 -3.3
v 8.3 0.1 -3.3
v 8.4 0 -3.3
v 8.4 0.1 -3.3
v 8.5 0 -3.3
v 8.5 0.1 -3.3
v 8.6 0 -3.3
v 8.6 0.1 -3.3
v 10 0 -3.3
v 10 0.1 -3.3
v 10.1 0 -3.3
v 10.1 0.1 -3.3
v 10.2 0 -3.3
v 10.2 0.1 -3.3
v 10.3 0 -3.3
v 10.3 0.1 -3.3
v 10.2 0.1 -4.8
v 10.2 0.2 -4.8
v 10.3 0.1 -4.8
v 10.3 0.2 -4.8
v 10.2 0.2 -4.9
v 10.2 0.3 -4.9
v 10.3 0.2 -4.9
v 10.3 0.3 -4.9
v 10.1 0.1 -5
v 10.1 0.2 -5
v 10.2 0.1 -5
v 10.2 0.2 -5
v 10 0.1 -5.1
v 10 0.2 -5.1
v 10.1 0.1 -5.1
v 10.1 0.2 -5.1
v 10.1 0.3 -5.1
v 10.2 0.2 -5.1
v 10.2 0.3 -5.1
v 9.8 0.1 -5.2
v 9.8 0.2 -5.2
v 9.9 0.2 -5.2
v 9.9 0.3 -5.2
v 10 0.1 -5.2
v 10 0.2 -5.2
v 10.1 0.2 -5.2
v 10.1 0.3 -5.2
v 8.3 0 -5.3
v 8.3 0.1 -5.3
v 9.8 0 -5.3
v 9.8 0.1 -5.3
v 9.8 0.2 -5.3
v 9.9 0.2 -5.3
v 9.9 0.3 -5.3
v 10 0 -5.3
v 10 0.2 -5.3
v 10.1 0 -5.3
v 10.1 0.3 -5.3
v 10.3 0 -5.3
v 10.3 0.3 -5.3
v 8.3 0 -3.3
v 8.4 0 -3.3
v 8.5 0 -3.3
v 8.6 0 -3.3
v 10 0 -3.3
v 10.1 0 -3.3
v 10.2 0 -3.3
v 10.3 0 -3.3
v 8.3 0 -3.4
v 8.4 0 -3.4
v 8.5 0 -3.4
v 8.6 0 -3.4
v 10 0 -3.4
v 10.1 0 -3.4
v 10.2 0 -3.4
v 8.3 0 -3.5
v 8.4 0 -3.5
v 8.5 0 -3.5
v 8.6 0 -3.5
v 9.1 0 -3.5
v 9.4 0 -3.5
v 8.3 0 -3.6
v 8.4 0 -3.6
v 8.5 0 -3.6
v 9.1 0 -4
v 9.4 0 -4
v 8.5 0 -4.1
v 9.1 0 -4.1
v 8.5 0 -4.4
v 9.1 0 -4.4
v 9.9 0 -4.7
v 10 0 -4.7
v 10.1 0 -4.7
v 10.1 0 -4.8
v 10.2 0 -4.8
v 10.3 0 -4.8
v 9.7 0 -4.9
v 9.9 0 -4.9
v 10 0 -4.9
v 10.2 0 -4.9
v 10.3 0 -4.9
v 8.3 0 -5
v 8.4 0 -5
v 9.7 0 -5
v 9.9 0 -5
v 10 0 -5
v 10.1 0 -5
v 10.2 0 -5
v 8.3 0 -5.1
v 8.4 0 -5.1
v 9.7 0 -5.1
v 9.8 0 -5.1
v 10 0 -5.1
v 10.1 0 -5.1
v 10.2 0 -5.1
v 10.3 0 -5.1
v 8.3 0 -5.2
v 8.4 0 -5.2
v 9.8 0 -5.2
v 10 0 -5.2
v 10.1 0 -5.2
v 10.2 0 -5.2
v 10.3 0 -5.2
v 8.3 0 -5.3
v 9.8 0 -5.3
v 10 0 -5.3
v 10.1 0 -5.3
v 10.3 0 -5.3
v 8.3 0.1 -3.3
v 8.4 0.1 -3.3
v 8.5 0.1 -3.3
v 8.6 0.1 -3.3
v 10 0.1 -3.3
v 10.1 0.1 -3.3
v 10.2 0.1 -3.3
v 10.3 0.1 -3.3
v 8.3 0.1 -3.4
v 8.4 0.1 -3.4
v 8.5 0.1 -3.4
v 8.6 0.1 -3.4
v 10 0.1 -3.4
v 10.1 0.1 -3.4
v 10.2 0.1 -3.4
v 8.3 0.1 -3.5
v 8.4 0.1 -3.5
v 8.5 0.1 -3.5
v 8.6 0.1 -3.5
v 9.1 0.1 -3.5
v 9.4 0.1 -3.5
v 8.3 0.1 -3.6
v 8.4 0.1 -3.6
v 8.5 0.1 -3.6
v 9.1 0.1 -4
v 9.4 0.1 -4
v 8.5 0.1 -4.1
v 9.1 0.1 -4.1
v 8.5 0.1 -4.4
v 9.1 0.1 -4.4
v 9.9 0.1 -4.7
v 10 0.1 -4.7
v 10.1 0.1 -4.7
v 10.1 0.1 -4.8
v 10.2 0.1 -4.8
v 10.3 0.1 -4.8
v 9.7 0.1 -4.9
v 9.9 0.1 -4.9
v 10 0.1 -4.9
v 10.2 0.1 -4.9
v 8.3 0.1 -5
v 8.4 0.1 -5
v 9.7 0.1 -5
v 9.9 0.1 -5
v 10 0.1 -5
v 10.1 0.1 -5
v 10.2 0.1 -5
v 8.3 0.1 -5.1
v 8.4 0.1 -5.1
v 9.7 0.1 -5.1
v 9.8 0.1 -5.1
v 10 0.1 -5.1
v 10.1 0.1 -5.1
v 8.3 0.1 -5.2
v 8.4 0.1 -5.2
v 9.8 0.1 -5.2
v 10 0.1 -5.2
v 8.3 0.1 -5.3
v 9.8 0.1 -5.3
v 10.2 0.2 -4.8
v 10.3 0.2 -4.8
v 10.2 0.2 -4.9
v 10.3 0.2 -4.9
v 10.1 0.2 -5
v 10.2 0.2 -5
v 10 0.2 -5.1
v 10.1 0.2 -5.1
v 10.2 0.2 -5.1
v 9.8 0.2 -5.2
v 9.9 0.2 -5.2
v 10 0.2 -5.2
v 10.1 0.2 -5.2
v 9.8 0.2 -5.3
v 9.9 0.2 -5.3
v 10.2 0.3 -4.9
v 10.3 0.3 -4.9
v 10.2 0.3 -5
v 10.3 0.3 -5
v 10.1 0.3 -5.1
v 10.2 0.3 -5.1
v 10.3 0.3 -5.1
v 9.9 0.3 -5.2
v 10.1 0.3 -5.2
v 10.3 0.3 -5.2
v 9.9 0.3 -5.3
v 10.1 0.3 -5.3
v 10.3 0.3 -5.3

# faces
f 9/1/1 2/1/1 1/1/1
f 10/2/1 3/2/1 2/2/1
f 10/1/1 2/1/1 9/1/1
f 11/4/1 4/4/1 3/4/1
f 11/2/1 3/2/1 10/2/1
f 12/2/1 5/2/1 4/2/1
f 12/4/1 4/4/1 11/4/1
f 13/4/1 6/4/1 5/4/1
f 13/2/1 5/2/1 12/2/1
f 14/2/1 7/2/1 6/2/1
f 14/4/1 6/4/1 13/4/1
f 15/1/1 8/1/1 7/1/1
f 15/2/1 7/2/1 14/2/1
f 16/1/1 8/1/1 15/1/1
f 19/5/1 18/5/1 17/5/1
f 20/5/1 18/5/1 19/5/1
f 23/6/1 22/6/1 21/6/1
f 24/6/1 22/6/1 23/6/1
f 27/5/1 26/5/1 25/5/1
f 28/5/1 26/5/1 27/5/1
f 31/5/1 30/5/1 29/5/1
f 32/5/1 30/5/1 31/5/1
f 34/6/1 33/6/1 32/6/1
f 35/6/1 33/6/1 34/6/1
f 39/5/1 37/5/1 36/5/1
f 40/6/1 38/6/1 37/6/1
f 40/5/1 37/5/1 39/5/1
f 41/6/1 38/6/1 40/6/1
f 43/6/1 41/6/1 40/6/1
f 44/7/1 42/7/1 41/7/1
f 44/6/1 41/6/1 43/6/1
f 45/7/1 42/7/1 44/7/1
f 46/1/2 47/1/2 52/1/2
f 47/5/2 48/5/2 53/5/2
f 52/1/2 47/1/2 53/1/2
f 53/5/2 48/5/2 54/5/2
f 48/6/2 49/6/2 55/6/2
f 54/5/2 48/5/2 55/5/2
f 55/6/2 49/6/2 56/6/2
f 49/5/2 50/5/2 57/5/2
f 56/6/2 49/6/2 57/6/2
f 50/7/2 51/7/2 58/7/2
f 57/5/2 50/5/2 58/5/2
f 55/6/2 56/6/2 59/6/2
f 56/7/2 57/7/2 60/7/2
f 59/6/2 56/6/2 60/6/2
f 57/6/2 58/6/2 61/6/2
f 60/7/2 57/7/2 61/7/2
f 58/7/2 51/7/2 62/7/2
f 61/6/2 58/6/2 62/6/2
f 62/7/2 51/7/2 63/7/2
f 66/1/3 65/1/3 64/1/3
f 67/1/3 65/1/3 66/1/3
f 68/2/3 67/2/3 66/2/3
f 69/2/3 67/2/3 68/2/3
f 70/4/3 69/4/3 68/4/3
f 71/4/3 69/4/3 70/4/3
f 72/2/3 71/2/3 70/2/3
f 73/2/3 71/2/3 72/2/3
f 74/4/3 73/4/3 72/4/3
f 75/4/3 73/4/3 74/4/3
f 76/2/3 75/2/3 74/2/3
f 77/2/3 75/2/3 76/2/3
f 78/1/3 77/1/3 76/1/3
f 79/1/3 77/1/3 78/1/3
f 82/5/3 81/5/3 80/5/3
f 83/5/3 81/5/3 82/5/3
f 86/6/3 85/6/3 84/6/3
f 87/6/3 85/6/3 86/6/3
f 90/5/3 89/5/3 88/5/3
f 91/5/3 89/5/3 90/5/3
f 94/5/3 93/5/3 92/5/3
f 95/5/3 93/5/3 94/5/3
f 97/6/3 96/6/3 95/6/3
f 98/6/3 96/6/3 97/6/3
f 101/5/3 100/5/3 99/5/3
f 103/5/3 101/5/3 99/5/3
f 104/6/3 102/6/3 101/6/3
f 104/5/3 101/5/3 103/5/3
f 105/6/3 102/6/3 104/6/3
f 106/6/3 102/6/3 105/6/3
f 107/1/4 108/1/4 109/1/4
f 109/1/4 108/1/4 110/1/4
f 109/5/4 110/5/4 112/5/4
f 110/5/4 111/5/4 112/5/4
f 109/5/4 112/5/4 114/5/4
f 112/6/4 113/6/4 115/6/4
f 114/5/4 112/5/4 115/5/4
f 114/6/4 115/6/4 116/6/4
f 115/6/4 113/6/4 117/6/4
f 116/6/4 115/6/4 117/6/4
f 116/7/4 117/7/4 118/7/4
f 118/7/4 117/7/4 119/7/4
f 128/1/5 121/1/5 120/1/5
f 129/2/5 122/2/5 121/2/5
f 129/1/5 121/1/5 128/1/5
f 130/4/5 123/4/5 122/4/5
f 130/2/5 122/2/5 129/2/5
f 131/2/5 124/2/5 123/2/5
f 131/4/5 123/4/5 130/4/5
f 132/4/5 125/4/5 124/4/5
f 132/2/5 124/2/5 131/2/5
f 133/2/5 126/2/5 125/2/5
f 133/4/5 125/4/5 132/4/5
f 134/1/5 127/1/5 126/1/5
f 134/2/5 126/2/5 133/2/5
f 135/2/5 129/2/5 128/2/5
f 136/3/5 130/3/5 129/3/5
f 136/2/5 129/2/5 135/2/5
f 137/4/5 131/4/5 130/4/5
f 137/3/5 130/3/5 136/3/5
f 138/3/5 132/3/5 131/3/5
f 138/4/5 131/4/5 137/4/5
f 139/3/5 132/3/5 138/3/5
f 140/3/5 132/3/5 139/3/5
f 141/4/5 136/4/5 135/4/5
f 141/4/5 137/4/5 136/4/5
f 142/4/5 137/4/5 141/4/5
f 143/3/5 138/3/5 137/3/5
f 143/4/5 137/4/5 142/4/5
f 143/3/5 139/3/5 138/3/5
f 144/4/5 140/4/5 139/4/5
f 144/3/5 139/3/5 143/3/5
f 144/3/5 143/3/5 142/3/5
f 145/3/5 132/3/5 140/3/5
f 145/4/5 140/4/5 144/4/5
f 146/3/5 144/3/5 142/3/5
f 146/3/5 145/3/5 144/3/5
f 147/3/5 145/3/5 146/3/5
f 148/3/5 146/3/5 142/3/5
f 148/4/5 147/4/5 146/4/5
f 149/3/5 145/3/5 147/3/5
f 149/4/5 147/4/5 148/4/5
f 150/3/5 132/3/5 145/3/5
f 150/3/5 145/3/5 149/3/5
f 150/3/5 149/3/5 148/3/5
f 151/4/5 133/4/5 132/4/5
f 151/3/5 132/3/5 150/3/5
f 152/3/5 134/3/5 133/3/5
f 152/4/5 133/4/5 151/4/5
f 153/3/5 152/3/5 151/3/5
f 153/3/5 134/3/5 152/3/5
f 154/1/5 127/1/5 134/1/5
f 154/3/5 134/3/5 153/3/5
f 155/1/5 127/1/5 154/1/5
f 156/3/5 150/3/5 148/3/5
f 157/4/5 151/4/5 150/4/5
f 157/3/5 150/3/5 156/3/5
f 158/3/5 153/3/5 151/3/5
f 158/4/5 151/4/5 157/4/5
f 159/1/5 154/1/5 153/1/5
f 159/5/5 155/5/5 154/5/5
f 160/5/5 155/5/5 159/5/5
f 161/2/5 142/2/5 141/2/5
f 162/3/5 148/3/5 142/3/5
f 162/2/5 142/2/5 161/2/5
f 162/3/5 156/3/5 148/3/5
f 163/4/5 157/4/5 156/4/5
f 163/3/5 156/3/5 162/3/5
f 164/3/5 158/3/5 157/3/5
f 164/4/5 157/4/5 163/4/5
f 165/3/5 153/3/5 158/3/5
f 165/3/5 158/3/5 164/3/5
f 166/1/5 159/1/5 153/1/5
f 166/3/5 153/3/5 165/3/5
f 167/6/5 160/6/5 159/6/5
f 167/1/5 159/1/5 166/1/5
f 168/4/5 162/4/5 161/4/5
f 168/4/5 163/4/5 162/4/5
f 169/4/5 163/4/5 168/4/5
f 170/3/5 164/3/5 163/3/5
f 170/4/5 163/4/5 169/4/5
f 170/3/5 165/3/5 164/3/5
f 171/3/5 165/3/5 170/3/5
f 172/1/5 166/1/5 165/1/5
f 172/3/5 165/3/5 171/3/5
f 173/5/5 167/5/5 166/5/5
f 173/1/5 166/1/5 172/1/5
f 174/6/5 160/6/5 167/6/5
f 174/5/5 167/5/5 173/5/5
f 175/6/5 160/6/5 174/6/5
f 176/2/5 169/2/5 168/2/5
f 177/3/5 171/3/5 170/3/5
f 177/2/5 169/2/5 176/2/5
f 177/3/5 170/3/5 169/3/5
f 178/1/5 172/1/5 171/1/5
f 178/3/5 171/3/5 177/3/5
f 179/5/5 173/5/5 172/5/5
f 179/1/5 172/1/5 178/1/5
f 180/6/5 174/6/5 173/6/5
f 180/5/5 173/5/5 179/5/5
f 181/5/5 175/5/5 174/5/5
f 181/6/5 174/6/5 180/6/5
f 182/5/5 175/5/5 181/5/5
f 183/1/5 178/1/5 177/1/5
f 183/1/5 177/1/5 176/1/5
f 184/5/5 179/5/5 178/5/5
f 184/1/5 178/1/5 183/1/5
f 185/6/5 180/6/5 179/6/5
f 185/5/5 179/5/5 184/5/5
f 186/7/5 182/7/5 181/7/5
f 186/6/5 180/6/5 185/6/5
f 186/7/5 181/7/5 180/7/5
f 187/7/5 182/7/5 186/7/5
f 188/1/6 189/1/6 196/1/6
f 189/2/6 190/2/6 197/2/6
f 196/1/6 189/1/6 197/1/6
f 190/4/6 191/4/6 198/4/6
f 197/2/6 190/2/6 198/2/6
f 191/2/6 192/2/6 199/2/6
f 198/4/6 191/4/6 199/4/6
f 192/4/6 193/4/6 200/4/6
f 199/2/6 192/2/6 200/2/6
f 193/2/6 194/2/6 201/2/6
f 200/4/6 193/4/6 201/4/6
f 194/1/6 195/1/6 202/1/6
f 201/2/6 194/2/6 202/2/6
f 196/2/6 197/2/6 203/2/6
f 197/3/6 198/3/6 204/3/6
f 203/2/6 197/2/6 204/2/6
f 198/4/6 199/4/6 205/4/6
f 204/3/6 198/3/6 205/3/6
f 199/3/6 200/3/6 206/3/6
f 205/4/6 199/4/6 206/4/6
f 206/3/6 200/3/6 207/3/6
f 207/3/6 200/3/6 208/3/6
f 203/4/6 204/4/6 209/4/6
f 204/4/6 205/4/6 209/4/6
f 209/4/6 205/4/6 210/4/6
f 205/3/6 206/3/6 211/3/6
f 210/4/6 205/4/6 211/4/6
f 206/3/6 207/3/6 211/3/6
f 207/4/6 208/4/6 212/4/6
f 211/3/6 207/3/6 212/3/6
f 210/3/6 211/3/6 212/3/6
f 208/3/6 200/3/6 213/3/6
f 212/4/6 208/4/6 213/4/6
f 210/3/6 212/3/6 214/3/6
f 212/3/6 213/3/6 214/3/6
f 214/3/6 213/3/6 215/3/6
f 210/3/6 214/3/6 216/3/6
f 214/4/6 215/4/6 216/4/6
f 215/3/6 213/3/6 217/3/6
f 216/4/6 215/4/6 217/4/6
f 213/3/6 200/3/6 218/3/6
f 217/3/6 213/3/6 218/3/6
f 216/3/6 217/3/6 218/3/6
f 200/4/6 201/4/6 219/4/6
f 218/3/6 200/3/6 219/3/6
f 201/3/6 202/3/6 220/3/6
f 219/4/6 201/4/6 220/4/6
f 219/3/6 220/3/6 221/3/6
f 220/3/6 202/3/6 221/3/6
f 202/1/6 195/1/6 222/1/6
f 221/3/6 202/3/6 222/3/6
f 222/1/6 195/1/6 223/1/6
f 216/3/6 218/3/6 224/3/6
f 218/4/6 219/4/6 225/4/6
f 224/3/6 218/3/6 225/3/6
f 219/3/6 221/3/6 226/3/6
f 225/4/6 219/4/6 226/4/6
f 221/1/6 222/1/6 227/1/6
f 209/2/6 210/2/6 228/2/6
f 210/3/6 216/3/6 229/3/6
f 228/2/6 210/2/6 229/2/6
f 216/3/6 224/3/6 229/3/6
f 224/4/6 225/4/6 230/4/6
f 229/3/6 224/3/6 230/3/6
f 225/3/6 226/3/6 231/3/6
f 230/4/6 225/4/6 231/4/6
f 226/3/6 221/3/6 232/3/6
f 231/3/6 226/3/6 232/3/6
f 221/1/6 227/1/6 233/1/6
f 232/3/6 221/3/6 233/3/6
f 233/1/6 227/1/6 234/1/6
f 228/4/6 229/4/6 235/4/6
f 229/4/6 230/4/6 235/4/6
f 235/4/6 230/4/6 236/4/6
f 231/3/6 232/3/6 237/3/6
f 236/4/6 230/4/6 237/4/6
f 230/3/6 231/3/6 237/3/6
f 237/3/6 232/3/6 238/3/6
f 232/1/6 233/1/6 239/1/6
f 238/3/6 232/3/6 239/3/6
f 239/1/6 233/1/6 240/1/6
f 235/2/6 236/2/6 241/2/6
f 237/3/6 238/3/6 242/3/6
f 241/2/6 236/2/6 242/2/6
f 236/3/6 237/3/6 242/3/6
f 238/1/6 239/1/6 243/1/6
f 242/3/6 238/3/6 243/3/6
f 243/1/6 239/1/6 244/1/6
f 241/1/6 242/1/6 245/1/6
f 242/1/6 243/1/6 245/1/6
f 245/1/6 243/1/6 246/1/6
f 247/5/6 248/5/6 249/5/6
f 249/5/6 248/5/6 250/5/6
f 251/5/6 252/5/6 254/5/6
f 254/5/6 252/5/6 255/5/6
f 253/5/6 254/5/6 258/5/6
f 258/5/6 254/5/6 259/5/6
f 256/5/6 257/5/6 260/5/6
f 260/5/6 257/5/6 261/5/6
f 262/6/6 263/6/6 264/6/6
f 264/6/6 263/6/6 265/6/6
f 264/7/6 265/7/6 267/7/6
f 267/7/6 265/7/6 268/7/6
f 266/6/6 267/6/6 270/6/6
f 267/6/6 268/6/6 270/6/6
f 270/6/6 268/6/6 271/6/6
f 269/6/6 270/6/6 272/6/6
f 270/7/6 271/7/6 273/7/6
f 272/6/6 270/6/6 273/6/6
f 273/7/6 271/7/6 274/7/6
